<svg width="22" height="14" viewBox="0 0 22 14" fill="none" xmlns="http://www.w3.org/2000/svg">
<path d="M5.50009 1.39453C5.50009 1.19873 5.57252 1.01094 5.70145 0.872488C5.83038 0.734033 6.00525 0.65625 6.18759 0.65625H8.25009C8.43242 0.65625 8.60729 0.734033 8.73622 0.872488C8.86515 1.01094 8.93759 1.19873 8.93759 1.39453C8.93759 1.59034 8.86515 1.77812 8.73622 1.91657C8.60729 2.05503 8.43242 2.13281 8.25009 2.13281V2.87109H13.9426L14.4733 1.16123C14.5189 1.01428 14.6064 0.886449 14.7233 0.795822C14.8403 0.705195 14.9809 0.656368 15.1251 0.65625H16.5001C16.6824 0.65625 16.8573 0.734033 16.9862 0.872488C17.1152 1.01094 17.1876 1.19873 17.1876 1.39453C17.1876 1.59034 17.1152 1.77812 16.9862 1.91657C16.8573 2.05503 16.6824 2.13281 16.5001 2.13281H15.6201L15.1925 3.5134L16.3021 5.41816C17.2583 4.99471 18.3277 4.97244 19.2984 5.35579C20.2692 5.73913 21.0704 6.50011 21.5433 7.48791C22.0162 8.47571 22.1263 9.61825 21.8518 10.6891C21.5772 11.76 20.9381 12.681 20.061 13.2696C19.1839 13.8583 18.1329 14.0717 17.1162 13.8674C16.0996 13.6632 15.1914 13.0563 14.5718 12.1669C13.9522 11.2776 13.6664 10.1707 13.7709 9.06571C13.8754 7.96069 14.3626 6.93816 15.1361 6.20074L14.4376 5.00177L11.5831 9.90691C11.5213 10.0131 11.4354 10.1007 11.3334 10.1614C11.2314 10.2221 11.1167 10.2539 11.0001 10.2539H8.19371C8.05111 11.1593 7.65001 11.9948 7.04589 12.6447C6.44177 13.2946 5.66449 13.7268 4.8216 13.8816C3.97871 14.0363 3.11187 13.9059 2.34101 13.5085C1.57014 13.111 0.933356 12.4661 0.518752 11.663C0.104148 10.8598 -0.0677802 9.93818 0.0267521 9.02553C0.121285 8.11287 0.477605 7.25433 1.04642 6.56866C1.61523 5.883 2.36842 5.40412 3.20177 5.19827C4.03513 4.99242 4.90746 5.06978 5.69809 5.41964L6.87509 3.39675V2.13281H6.18759C6.00525 2.13281 5.83038 2.05503 5.70145 1.91657C5.57252 1.77812 5.50009 1.59034 5.50009 1.39453ZM7.56259 5.00177L6.86409 6.2037C7.55159 6.85929 8.03284 7.75999 8.19371 8.77734H9.75984L7.56259 5.00177ZM11.0001 8.12323L13.1973 4.34766H8.80284L11.0001 8.12323ZM6.78846 8.77734C6.67149 8.29154 6.44101 7.84583 6.11883 7.4824L5.36534 8.77734H6.78846ZM4.95421 6.69834C4.42966 6.52046 3.86749 6.51559 3.34035 6.68437C2.8132 6.85315 2.3453 7.18782 1.99711 7.64513C1.64892 8.10244 1.43645 8.66138 1.38715 9.24971C1.33785 9.83804 1.45398 10.4287 1.72055 10.9455C1.98711 11.4622 2.39186 11.8812 2.88248 12.1483C3.3731 12.4154 3.92705 12.5184 4.47274 12.444C5.01843 12.3695 5.53079 12.121 5.9436 11.7306C6.35641 11.3402 6.65071 10.8258 6.78846 10.2539H4.12509C4.00236 10.2539 3.88188 10.2186 3.77614 10.1517C3.6704 10.0849 3.58326 9.98879 3.52377 9.87352C3.46428 9.75826 3.4346 9.62799 3.43782 9.49625C3.44104 9.36451 3.47704 9.23609 3.54209 9.12434L4.95421 6.69834ZM15.8813 7.48092C15.4205 8.00215 15.1524 8.686 15.1275 9.40427C15.1025 10.1225 15.3224 10.8259 15.7458 11.3826C16.1692 11.9392 16.7672 12.3109 17.4276 12.428C18.088 12.5451 18.7655 12.3996 19.333 12.0186C19.9006 11.6377 20.3194 11.0475 20.5107 10.3587C20.7021 9.66996 20.653 8.92988 20.3726 8.27722C20.0922 7.62456 19.5998 7.10413 18.9876 6.81347C18.3755 6.5228 17.6856 6.48187 17.0473 6.69834L18.4581 9.12434C18.5059 9.20655 18.5382 9.29808 18.5531 9.39371C18.5681 9.48933 18.5653 9.58716 18.545 9.68163C18.5247 9.7761 18.4872 9.86536 18.4348 9.94429C18.3824 10.0232 18.316 10.0903 18.2395 10.1417C18.1629 10.1931 18.0777 10.2278 17.9886 10.2438C17.8996 10.2598 17.8085 10.2568 17.7205 10.235C17.6325 10.2132 17.5494 10.173 17.4759 10.1167C17.4024 10.0604 17.3399 9.98913 17.2921 9.90691L15.8813 7.4824V7.48092Z" fill="#84CCC9"/>
</svg>
