<svg width="18" height="22" viewBox="0 0 18 22" fill="none" xmlns="http://www.w3.org/2000/svg">
<path d="M13.262 2.71553C11.2139 2.71553 9.48526 4.32219 9.24472 6.31687H6.96657L6.40779 3.18025C6.17546 2.01855 5.36225 1.20533 4.31671 0.856841L1.41248 0.0435614C1.18016 -0.0726023 0.8316 0.0435614 0.715436 0.392053C0.599273 0.62438 0.715436 0.972938 1.06393 1.0891L3.96822 1.90232C4.66527 2.13464 5.12992 2.59936 5.24608 3.29641L5.78398 6.31687H4.31678C3.96828 6.31687 3.50356 6.43303 3.27124 6.78153C3.03891 7.01385 2.92275 7.47858 2.92275 7.82707L4.43294 19.7927C4.5491 21.0706 5.71081 22 6.98874 22H9.54454C10.8224 22 11.8679 21.0706 12.1003 19.7927L13.2295 10.844C13.24 10.844 13.2504 10.8475 13.262 10.8475C15.4693 10.8475 17.328 8.9887 17.328 6.78146C17.328 4.57428 15.4692 2.71553 13.262 2.71553ZM12.4488 7.7109L12.2246 9.49181C11.2999 9.14559 10.6098 8.35568 10.4158 7.36234H12.2176C12.3337 7.36234 12.4499 7.47851 12.4499 7.47851C12.4488 7.59474 12.4488 7.59474 12.4488 7.7109ZM4.08438 7.47858C4.20055 7.36241 4.20054 7.36241 4.31671 7.36241H5.96984L7.06531 13.5195H4.81741L4.08438 7.7109C3.96822 7.59474 4.08438 7.47858 4.08438 7.47858ZM10.9385 19.6766C10.8223 20.3736 10.2415 20.9544 9.5444 20.9544H6.98861C6.29156 20.9544 5.71074 20.3736 5.59451 19.6766L4.96369 14.6812H7.272L7.68559 17.0046C7.80175 17.2369 8.03408 17.4693 8.26647 17.4693C8.61496 17.3531 8.84736 17.1208 8.84736 16.8884L8.45467 14.6811H11.5693L10.9385 19.6766ZM11.7157 13.5195H8.24805L7.15257 7.36241H9.25647C9.48879 8.90519 10.6145 10.1796 12.0782 10.6443L11.7157 13.5195ZM13.3769 9.6742L13.6104 7.82707C13.6104 7.47858 13.4942 7.13002 13.2619 6.78153C13.0296 6.43303 12.5649 6.31687 12.2164 6.31687H10.4029C10.6213 4.9193 11.7947 3.87723 13.2619 3.87723C14.7721 3.87723 16.1662 5.1551 16.1662 6.78153C16.1663 8.36843 14.9465 9.61379 13.3769 9.6742Z" fill="#84CCC9"/>
</svg>
