<svg width="19" height="18" viewBox="0 0 19 18" fill="none" xmlns="http://www.w3.org/2000/svg">
<g clip-path="url(#clip0_2_2876)">
<path d="M9.43464 10.0045C9.98939 10.0045 10.4391 9.55482 10.4391 9.00007C10.4391 8.44532 9.98939 7.99561 9.43464 7.99561C8.87989 7.99561 8.43018 8.44532 8.43018 9.00007C8.43018 9.55482 8.87989 10.0045 9.43464 10.0045Z" fill="#EBEBEB"/>
<path d="M9.43436 0.294678C4.63428 0.294678 0.729004 4.19995 0.729004 9.00003C0.729004 13.8001 4.63428 17.7054 9.43436 17.7054C14.2344 17.7054 18.1397 13.8001 18.1397 9.00003C18.1397 4.19995 14.2344 0.294678 9.43436 0.294678ZM13.8318 5.03784L11.8698 9.94297C11.735 10.2799 11.5333 10.5859 11.2767 10.8424C11.0202 11.099 10.7142 11.3007 10.3773 11.4354L5.47217 13.3975C5.41132 13.4218 5.34466 13.4278 5.28046 13.4146C5.21626 13.4015 5.15733 13.3697 5.11099 13.3234C5.06465 13.2771 5.03292 13.2181 5.01975 13.1539C5.00658 13.0897 5.01254 13.0231 5.0369 12.9622L6.99895 8.05709C7.13367 7.72021 7.33543 7.41421 7.59199 7.15766C7.84854 6.90111 8.15454 6.69935 8.49142 6.56463L13.3966 4.60257C13.4574 4.57822 13.5241 4.57226 13.5883 4.58543C13.6525 4.5986 13.7114 4.63032 13.7577 4.67666C13.8041 4.72301 13.8358 4.78193 13.849 4.84614C13.8621 4.91034 13.8562 4.97699 13.8318 5.03784Z" fill="#EBEBEB"/>
</g>
<defs>
<clipPath id="clip0_2_2876">
<rect width="18" height="18" fill="white" transform="translate(0.43457)"/>
</clipPath>
</defs>
</svg>
