<svg width="20" height="20" viewBox="0 0 20 20" fill="none" xmlns="http://www.w3.org/2000/svg">
<path d="M1.82854 19.857C1.64409 19.8496 1.46967 19.7711 1.34183 19.638C1.214 19.5048 1.14267 19.3273 1.14282 19.1427V1.32561C1.14282 1.13617 1.21808 0.954492 1.35203 0.820537C1.48599 0.686583 1.66767 0.611328 1.85711 0.611328C2.04655 0.611328 2.22823 0.686583 2.36218 0.820537C2.49614 0.954492 2.57139 1.13617 2.57139 1.32561V19.1427C2.57147 19.239 2.55209 19.3343 2.51442 19.4228C2.47675 19.5114 2.42157 19.5915 2.35219 19.6582C2.2828 19.7249 2.20065 19.7769 2.11066 19.8111C2.02068 19.8452 1.92471 19.8609 1.82854 19.857Z" fill="#84CCC9"/>
<path d="M15.4571 15.9657C13.7942 15.9657 12.08 15.6514 11.2971 13.7714C10.8228 12.6286 6.07425 12.4914 1.93139 13.0629C1.74347 13.0917 1.5518 13.0446 1.39855 12.9321C1.24531 12.8196 1.14304 12.6508 1.11425 12.4629C1.08545 12.2749 1.13249 12.0833 1.24501 11.93C1.35753 11.7768 1.52632 11.6745 1.71425 11.6457C3.99996 11.3314 11.4685 10.5029 12.5714 13.2229C13.1428 14.5714 14.48 14.6 16.6343 14.4914L17.4114 14.4629V4.74286L16.72 4.77715C14.5314 4.90858 12.2685 5.04 11.2514 2.60572C10.7828 1.46286 6.02853 1.32571 1.88568 1.89143C1.78838 1.91301 1.68765 1.91399 1.58995 1.89431C1.49226 1.87463 1.39976 1.83472 1.31841 1.77716C1.23706 1.71959 1.16866 1.64564 1.1176 1.56005C1.06654 1.47447 1.03395 1.37914 1.02193 1.28021C1.00992 1.18128 1.01874 1.08093 1.04783 0.98561C1.07691 0.890291 1.12562 0.802113 1.19083 0.726746C1.25603 0.651379 1.33629 0.59049 1.42643 0.547995C1.51658 0.5055 1.61462 0.482338 1.71425 0.48C3.99996 0.165714 11.4685 -0.662859 12.5714 2.05714C13.1428 3.49143 14.3771 3.48572 16.6343 3.35429C17.12 3.35429 17.6171 3.29715 18.1143 3.29143C18.2095 3.28842 18.3044 3.30514 18.3929 3.34054C18.4814 3.37594 18.5616 3.42926 18.6285 3.49715C18.6989 3.56097 18.7554 3.6385 18.7948 3.72497C18.8341 3.81144 18.8553 3.90504 18.8571 4V15.1714C18.8565 15.2664 18.837 15.3603 18.7997 15.4476C18.7625 15.5349 18.7081 15.6139 18.64 15.68C18.5011 15.8118 18.3171 15.8854 18.1257 15.8857C17.6914 15.8857 17.2171 15.8857 16.72 15.92C16.3371 15.9429 15.8971 15.9657 15.4571 15.9657Z" fill="#84CCC9"/>
</svg>
