<svg width="42" height="42" viewBox="0 0 42 42" fill="none" xmlns="http://www.w3.org/2000/svg">
<g clip-path="url(#clip0_2_3555)">
<path d="M30.8302 0.799805H12.0269C5.90719 0.799805 0.928589 5.7784 0.928589 11.8981V30.7017C0.928589 36.8211 5.90719 41.7997 12.0269 41.7997H30.8305C36.9499 41.7997 41.9285 36.8211 41.9285 30.7017V11.8981C41.9285 5.7784 36.9499 0.799805 30.8302 0.799805V0.799805ZM21.4286 32.5104C15.2469 32.5104 10.2179 27.4814 10.2179 21.2998C10.2179 15.1181 15.2469 10.0892 21.4286 10.0892C27.6102 10.0892 32.6392 15.1181 32.6392 21.2998C32.6392 27.4814 27.6102 32.5104 21.4286 32.5104V32.5104ZM32.9072 12.733C31.0804 12.733 29.5946 11.2472 29.5946 9.42038C29.5946 7.59361 31.0804 6.10747 32.9072 6.10747C34.734 6.10747 36.2201 7.59361 36.2201 9.42038C36.2201 11.2472 34.734 12.733 32.9072 12.733Z" fill="white"/>
<path d="M21.4284 12.4927C16.5724 12.4927 12.6213 16.4434 12.6213 21.2997C12.6213 26.1557 16.5724 30.1067 21.4284 30.1067C26.2846 30.1067 30.2354 26.1557 30.2354 21.2997C30.2354 16.4434 26.2846 12.4927 21.4284 12.4927V12.4927Z" fill="white"/>
<path d="M32.9071 8.51172C32.4059 8.51172 31.998 8.91962 31.998 9.42073C31.998 9.92184 32.4059 10.3297 32.9071 10.3297C33.4085 10.3297 33.8164 9.92215 33.8164 9.42073C33.8164 8.9193 33.4085 8.51172 32.9071 8.51172Z" fill="white"/>
</g>
<defs>
<clipPath id="clip0_2_3555">
<rect width="41" height="41" fill="white" transform="translate(0.928589 0.799805)"/>
</clipPath>
</defs>
</svg>
