<svg width="19" height="16" viewBox="0 0 19 16" fill="none" xmlns="http://www.w3.org/2000/svg">
<path d="M16.7917 15.2918H2.20837C1.62821 15.2918 1.07181 15.0614 0.661578 14.6511C0.251342 14.2409 0.020874 13.6845 0.020874 13.1043V2.896C0.020874 2.31584 0.251342 1.75944 0.661578 1.3492C1.07181 0.938964 1.62821 0.708496 2.20837 0.708496H16.7917C17.3719 0.708496 17.9283 0.938964 18.3385 1.3492C18.7487 1.75944 18.9792 2.31584 18.9792 2.896V13.1043C18.9792 13.6845 18.7487 14.2409 18.3385 14.6511C17.9283 15.0614 17.3719 15.2918 16.7917 15.2918ZM2.20837 2.16683C2.01499 2.16683 1.82952 2.24365 1.69278 2.3804C1.55603 2.51714 1.47921 2.70261 1.47921 2.896V13.1043C1.47921 13.2977 1.55603 13.4832 1.69278 13.6199C1.82952 13.7567 2.01499 13.8335 2.20837 13.8335H16.7917C16.9851 13.8335 17.1706 13.7567 17.3073 13.6199C17.4441 13.4832 17.5209 13.2977 17.5209 13.1043V2.896C17.5209 2.70261 17.4441 2.51714 17.3073 2.3804C17.1706 2.24365 16.9851 2.16683 16.7917 2.16683H2.20837Z" fill="#84CCC9"/>
<path d="M8.04167 12.3753H3.66667C3.47328 12.3753 3.28781 12.2985 3.15107 12.1618C3.01432 12.025 2.9375 11.8395 2.9375 11.6462C2.9375 11.4528 3.01432 11.2673 3.15107 11.1306C3.28781 10.9938 3.47328 10.917 3.66667 10.917H8.04167C8.23505 10.917 8.42052 10.9938 8.55726 11.1306C8.69401 11.2673 8.77083 11.4528 8.77083 11.6462C8.77083 11.8395 8.69401 12.025 8.55726 12.1618C8.42052 12.2985 8.23505 12.3753 8.04167 12.3753Z" fill="#84CCC9"/>
<path d="M18.25 5.81283H0.750041C0.556654 5.81283 0.371187 5.736 0.234442 5.59926C0.0976967 5.46251 0.020874 5.27705 0.020874 5.08366C0.020874 4.89027 0.0976967 4.70481 0.234442 4.56806C0.371187 4.43132 0.556654 4.35449 0.750041 4.35449H18.25C18.4434 4.35449 18.6289 4.43132 18.7656 4.56806C18.9024 4.70481 18.9792 4.89027 18.9792 5.08366C18.9792 5.27705 18.9024 5.46251 18.7656 5.59926C18.6289 5.736 18.4434 5.81283 18.25 5.81283Z" fill="#84CCC9"/>
</svg>
