<svg width="24" height="18" viewBox="0 0 24 18" fill="none" xmlns="http://www.w3.org/2000/svg">
<path d="M18.0706 5.62557C17.9487 7.29171 16.6943 8.57523 15.3263 8.57523C13.9583 8.57523 12.7018 7.29212 12.582 5.62557C12.4573 3.89223 13.6785 2.6759 15.3263 2.6759C16.9741 2.6759 18.1953 3.92377 18.0706 5.62557Z" stroke="#84CCC9" stroke-width="2" stroke-linecap="round" stroke-linejoin="round"/>
<path d="M15.3265 11.1973C12.6167 11.1973 10.0109 12.5234 9.35807 15.106C9.27159 15.4476 9.48905 15.7856 9.84539 15.7856H20.808C21.1643 15.7856 21.3805 15.4476 21.2953 15.106C20.6425 12.482 18.0367 11.1973 15.3265 11.1973Z" stroke="#84CCC9" stroke-width="2" stroke-miterlimit="10"/>
<path d="M8.67121 5.36048C8.57392 6.6911 7.56019 7.73905 6.46747 7.73905C5.37475 7.73905 4.35936 6.69151 4.26373 5.36048C4.16435 3.97618 5.15105 2.98682 6.46747 2.98682C7.78389 2.98682 8.77059 4.00158 8.67121 5.36048Z" stroke="#84CCC9" stroke-width="2" stroke-linecap="round" stroke-linejoin="round"/>
<path d="M8.92088 10.2791C8.17036 9.94034 7.34375 9.81006 6.46766 9.81006C4.3055 9.81006 2.22234 10.8691 1.70051 12.9318C1.6319 13.2046 1.8057 13.4746 2.09011 13.4746H6.75872" stroke="#84CCC9" stroke-width="2" stroke-miterlimit="10" stroke-linecap="round"/>
</svg>
