<svg width="20" height="20" viewBox="0 0 20 20" fill="none" xmlns="http://www.w3.org/2000/svg">
<path d="M9.99994 0.0239258C4.49923 0.0239258 0.0239258 4.49923 0.0239258 9.99994C0.0239258 15.5007 4.49923 19.976 9.99994 19.976C15.5007 19.976 19.976 15.5007 19.976 9.99994C19.976 4.49923 15.5007 0.0239258 9.99994 0.0239258ZM9.99994 15.3673C9.81023 15.3673 9.62477 15.3111 9.46702 15.2057C9.30928 15.1003 9.18633 14.9505 9.11373 14.7752C9.04113 14.5999 9.02213 14.407 9.05914 14.221C9.09616 14.0349 9.18751 13.864 9.32166 13.7298C9.45582 13.5957 9.62673 13.5043 9.81281 13.4673C9.99888 13.4303 10.1917 13.4493 10.367 13.5219C10.5423 13.5945 10.6921 13.7174 10.7975 13.8752C10.9029 14.0329 10.9592 14.2184 10.9592 14.4081C10.9592 14.6625 10.8581 14.9065 10.6782 15.0864C10.4983 15.2663 10.2543 15.3673 9.99994 15.3673ZM11.0417 5.71985L10.7664 11.5712C10.7664 11.7747 10.6855 11.9699 10.5416 12.1138C10.3977 12.2577 10.2025 12.3386 9.99898 12.3386C9.79546 12.3386 9.60027 12.2577 9.45636 12.1138C9.31245 11.9699 9.2316 11.7747 9.2316 11.5712L8.9563 5.72273V5.72033C8.95027 5.57977 8.97274 5.43944 9.02237 5.30779C9.072 5.17614 9.14776 5.0559 9.24509 4.95431C9.34242 4.85271 9.4593 4.77186 9.5887 4.71663C9.7181 4.6614 9.85733 4.63293 9.99803 4.63293C10.1387 4.63293 10.278 4.6614 10.4074 4.71663C10.5367 4.77186 10.6536 4.85271 10.751 4.95431C10.8483 5.0559 10.924 5.17614 10.9737 5.30779C11.0233 5.43944 11.0458 5.57977 11.0398 5.72033L11.0417 5.71985Z" fill="#E6E6E6"/>
</svg>
