<svg width="22" height="17" viewBox="0 0 22 17" fill="none" xmlns="http://www.w3.org/2000/svg">
<path fill-rule="evenodd" clip-rule="evenodd" d="M0.284837 16.025C0.227769 16.1212 0.196895 16.2311 0.195372 16.3434C0.193849 16.4556 0.221732 16.5663 0.27617 16.6641C0.330607 16.7618 0.409644 16.8431 0.505194 16.8997C0.600744 16.9562 0.709378 16.986 0.819981 16.986H21.1806C21.3439 16.9826 21.4995 16.9143 21.6138 16.7958C21.7281 16.6773 21.7922 16.5181 21.7922 16.3522C21.7922 16.1864 21.7281 16.0271 21.6138 15.9086C21.4995 15.7901 21.3439 15.7219 21.1806 15.7185H19.9312L17.8575 12.3323C19.1693 11.7696 20.2552 10.7733 20.9391 9.50511C21.6229 8.23694 21.8646 6.77134 21.6249 5.34618C21.3851 3.92102 20.678 2.61994 19.6183 1.65411C18.5587 0.688285 17.2086 0.114394 15.7872 0.0255833C15.3876 0.000968563 14.9866 0.0145224 14.5894 0.0660661C14.4477 0.0844604 14.3164 0.151699 14.2175 0.256547C14.1187 0.361395 14.0583 0.497503 14.0464 0.642131C14.0345 0.786759 14.0719 0.931148 14.1522 1.05117C14.2326 1.1712 14.3511 1.25959 14.4879 1.30159C15.0191 1.46583 15.4976 1.77097 15.8739 2.18553C16.2503 2.6001 16.5109 3.10908 16.6289 3.66C16.7469 4.21091 16.718 4.78381 16.5452 5.31962C16.3725 5.85542 16.062 6.33474 15.646 6.70813C15.2299 7.08152 14.7233 7.33547 14.1783 7.4438C13.6334 7.55212 13.0698 7.5109 12.5458 7.32438C12.0217 7.13786 11.5562 6.81279 11.1971 6.3827C10.8381 5.95261 10.5985 5.43306 10.5032 4.87764C10.4788 4.73476 10.4069 4.6047 10.2995 4.50916C10.192 4.41362 10.0556 4.35838 9.91284 4.35268C9.77012 4.34698 9.6298 4.39115 9.51529 4.47782C9.40078 4.56449 9.31902 4.68841 9.28365 4.8289C9.18798 5.20719 9.12652 5.59356 9.10002 5.98319C8.72729 5.66582 8.25828 5.48844 7.77187 5.48089H7.76479C6.98647 5.48355 6.25064 5.96668 5.74488 6.80563L0.284837 16.025ZM10.5572 8.08749C10.5048 7.91118 10.4599 7.58679 10.4261 7.40648C10.4969 7.48105 10.5706 7.55376 10.6459 7.62434C11.382 8.29944 12.3217 8.70135 13.3117 8.76451C13.4022 8.77011 13.4924 8.77277 13.5819 8.77277C14.3823 8.77242 15.1672 8.54894 15.8511 8.1267C16.535 7.70446 17.0915 7.09967 17.46 6.3783C17.8285 5.65692 17.9949 4.84666 17.9409 4.03588C17.8869 3.22509 17.6147 2.44492 17.1539 1.78045C17.0952 1.69603 17.0333 1.6132 16.969 1.53303C17.967 1.86324 18.8394 2.4999 19.4657 3.35509C20.092 4.21027 20.4413 5.24179 20.4654 6.30719C20.4895 7.37258 20.1872 8.4193 19.6002 9.30277C19.0132 10.1862 18.1706 10.8629 17.1886 11.2393L16.766 10.5505C16.2568 9.71852 15.5202 9.24178 14.7437 9.24178H14.7364C13.9565 9.24524 13.2206 9.7289 12.7164 10.5679L12.4087 11.0787L10.5572 8.08749ZM15.7056 11.2201L18.4601 15.7185H11.0819L13.7823 11.2276C14.0556 10.7729 14.405 10.5111 14.7408 10.5098C15.0766 10.5085 15.4292 10.7673 15.7056 11.2201ZM1.92332 15.7174L6.81386 7.46347C7.08536 7.01071 7.43426 6.75103 7.76925 6.7497H7.77213C8.10581 6.7497 8.45602 7.00858 8.73146 7.46001L11.6797 12.2897L9.61576 15.7174H1.92332Z" fill="#84CCC9"/>
</svg>
