<svg width="41" height="42" viewBox="0 0 41 42" fill="none" xmlns="http://www.w3.org/2000/svg">
<path d="M20.322 0.799805H20.3121C9.32635 0.799805 0.392822 9.99405 0.392822 21.2998C0.392822 25.7842 1.79748 29.9406 4.1859 33.3154L1.70284 40.9311L9.36121 38.4122C12.5117 40.5596 16.2699 41.7998 20.322 41.7998C31.3077 41.7998 40.2413 32.603 40.2413 21.2998C40.2413 9.99662 31.3077 0.799805 20.322 0.799805ZM31.9154 29.7484C31.4348 31.1449 29.527 32.3032 28.0053 32.6414C26.9643 32.8695 25.6044 33.0514 21.0268 31.0988C15.1716 28.6029 11.401 22.4811 11.1071 22.0839C10.8256 21.6867 8.74107 18.8424 8.74107 15.9006C8.74107 12.9589 10.193 11.5264 10.7783 10.9114C11.259 10.4066 12.0535 10.176 12.8156 10.176C13.0621 10.176 13.2838 10.1888 13.483 10.1991C14.0683 10.2247 14.3622 10.2606 14.7482 11.2112C15.2289 12.4028 16.3994 15.3446 16.5389 15.6469C16.6809 15.9493 16.8228 16.3593 16.6236 16.7565C16.4368 17.1665 16.2724 17.3484 15.9785 17.6969C15.6847 18.0454 15.4057 18.3119 15.1118 18.6861C14.8429 19.0115 14.539 19.36 14.8777 19.9622C15.2164 20.5516 16.387 22.517 18.1104 24.0955C20.3345 26.1327 22.1376 26.7836 22.7827 27.0603C23.2633 27.2653 23.8362 27.2166 24.1873 26.8322C24.6331 26.3377 25.1835 25.5177 25.7439 24.7105C26.1424 24.1314 26.6455 24.0596 27.1735 24.2646C27.7114 24.4568 30.5581 25.9046 31.1434 26.2044C31.7286 26.5068 32.1147 26.6503 32.2566 26.904C32.3961 27.1577 32.3961 28.3492 31.9154 29.7484Z" fill="white"/>
</svg>
