<svg width="15" height="15" viewBox="0 0 15 15" fill="none" xmlns="http://www.w3.org/2000/svg">
<path d="M14.0688 8.60001C13.8371 8.28006 13.7123 7.89508 13.7123 7.50001C13.7123 7.10493 13.8371 6.71995 14.0688 6.40001L14.5438 5.74376C14.6019 5.66362 14.6401 5.57084 14.6553 5.47305C14.6706 5.37526 14.6623 5.27525 14.6313 5.18126C14.6 5.08825 14.5476 5.00375 14.4782 4.93436C14.4088 4.86497 14.3243 4.81257 14.2313 4.78126L13.4626 4.53126C13.086 4.40978 12.7577 4.17179 12.5252 3.85163C12.2927 3.53147 12.1679 3.1457 12.1688 2.75001V1.93751C12.1688 1.83886 12.1453 1.74163 12.1005 1.65377C12.0556 1.56591 11.9906 1.48992 11.9108 1.43201C11.8309 1.3741 11.7385 1.33591 11.641 1.32057C11.5436 1.30523 11.4439 1.31318 11.3501 1.34376L10.5751 1.59376C10.1988 1.71551 9.79374 1.71518 9.41769 1.59283C9.04164 1.47047 8.7139 1.23235 8.48134 0.912509L8.00634 0.256259C7.94569 0.180202 7.86868 0.118788 7.78104 0.0765787C7.6934 0.0343698 7.59737 0.0124512 7.50009 0.0124512C7.40281 0.0124512 7.30678 0.0343698 7.21914 0.0765787C7.13149 0.118788 7.05449 0.180202 6.99384 0.256259L6.51884 0.912509C6.28627 1.23235 5.95854 1.47047 5.58249 1.59283C5.20644 1.71518 4.80133 1.71551 4.42509 1.59376L3.65009 1.34376C3.5563 1.31318 3.45661 1.30523 3.35916 1.32057C3.26171 1.33591 3.16928 1.3741 3.08942 1.43201C3.00956 1.48992 2.94455 1.56591 2.89969 1.65377C2.85483 1.74163 2.83141 1.83886 2.83134 1.93751V2.75001C2.8323 3.1457 2.7075 3.53147 2.47497 3.85163C2.24243 4.17179 1.91418 4.40978 1.53759 4.53126L0.768839 4.78126C0.675834 4.81257 0.591331 4.86497 0.52194 4.93436C0.452549 5.00375 0.400149 5.08825 0.368839 5.18126C0.337846 5.27525 0.329617 5.37526 0.34483 5.47305C0.360042 5.57084 0.39826 5.66362 0.456339 5.74376L0.931339 6.40001C1.16312 6.71995 1.28791 7.10493 1.28791 7.50001C1.28791 7.89508 1.16312 8.28006 0.931339 8.60001L0.456339 9.25626C0.39826 9.33639 0.360042 9.42918 0.34483 9.52697C0.329617 9.62476 0.337846 9.72477 0.368839 9.81876C0.400149 9.91176 0.452549 9.99627 0.52194 10.0657C0.591331 10.135 0.675834 10.1874 0.768839 10.2188L1.53759 10.4688C1.91418 10.5902 2.24243 10.8282 2.47497 11.1484C2.7075 11.4685 2.8323 11.8543 2.83134 12.25V13.0625C2.83141 13.1612 2.85483 13.2584 2.89969 13.3462C2.94455 13.4341 3.00956 13.5101 3.08942 13.568C3.16928 13.6259 3.26171 13.6641 3.35916 13.6794C3.45661 13.6948 3.5563 13.6868 3.65009 13.6563L4.41884 13.4063C4.79588 13.2825 5.20253 13.2817 5.58001 13.4042C5.95749 13.5266 6.28627 13.7659 6.51884 14.0875L6.99384 14.7438C7.05219 14.8232 7.12843 14.8878 7.21637 14.9323C7.30432 14.9769 7.40151 15.0001 7.50009 15.0001C7.59867 15.0001 7.69586 14.9769 7.78381 14.9323C7.87175 14.8878 7.94799 14.8232 8.00634 14.7438L8.48134 14.0875C8.71429 13.7664 9.04309 13.5275 9.42044 13.405C9.79779 13.2826 10.2042 13.2831 10.5813 13.4063L11.3501 13.6563C11.4439 13.6868 11.5436 13.6948 11.641 13.6794C11.7385 13.6641 11.8309 13.6259 11.9108 13.568C11.9906 13.5101 12.0556 13.4341 12.1005 13.3462C12.1453 13.2584 12.1688 13.1612 12.1688 13.0625V12.25C12.1679 11.8543 12.2927 11.4685 12.5252 11.1484C12.7577 10.8282 13.086 10.5902 13.4626 10.4688L14.2313 10.2188C14.3243 10.1874 14.4088 10.135 14.4782 10.0657C14.5476 9.99627 14.6 9.91176 14.6313 9.81876C14.6623 9.72477 14.6706 9.62476 14.6553 9.52697C14.6401 9.42918 14.6019 9.33639 14.5438 9.25626L14.0688 8.60001ZM10.4438 6.69188L7.31884 9.81688C7.20163 9.93405 7.04269 9.99988 6.87696 9.99988C6.71124 9.99988 6.55229 9.93405 6.43509 9.81688L4.56009 7.94188C4.5004 7.88423 4.45278 7.81526 4.42003 7.73901C4.38727 7.66276 4.37003 7.58075 4.36931 7.49776C4.36859 7.41477 4.3844 7.33247 4.41583 7.25566C4.44725 7.17885 4.49366 7.10907 4.55234 7.05039C4.61103 6.9917 4.68081 6.9453 4.75762 6.91387C4.83443 6.88244 4.91673 6.86663 4.99971 6.86735C5.0827 6.86807 5.16471 6.88531 5.24097 6.91807C5.31722 6.95083 5.38618 6.99844 5.44384 7.05813L6.87509 8.49126L9.55821 5.80813C9.67609 5.69428 9.83397 5.63129 9.99784 5.63271C10.1617 5.63414 10.3185 5.69987 10.4344 5.81575C10.5502 5.93163 10.616 6.08839 10.6174 6.25226C10.6188 6.41613 10.5558 6.57401 10.442 6.69188H10.4438Z" fill="#84CCC9"/>
</svg>
